ply
format ascii 1.0
comment PCL generated
element vertex 17
property float x
property float y
property float z
element camera 1
property float view_px
property float view_py
property float view_pz
property float x_axisx
property float x_axisy
property float x_axisz
property float y_axisx
property float y_axisy
property float y_axisz
property float z_axisx
property float z_axisy
property float z_axisz
property float focal
property float scalex
property float scaley
property float centerx
property float centery
property int viewportx
property int viewporty
property float k1
property float k2
end_header
4.1146002 16.7682 -39.5135
20.635099 -0.43180001 -42.315899
16.3351 25.3682 -42.878201
-48.791801 -17.6318 -14.926451
2.8796878 -41.775452 -39.418331
2.8796878 -41.775452 -39.418331
-28.400753 -35.369301 -41.684639
16.3351 25.3682 -42.878201
22.785099 29.6682 -42.582451
30.861111 -35.106102 39.424892
31.385099 41.493202 38.910851
-40.391506 -44.104618 -36.308548
33.319847 18.42062 42.760338
38.501511 13.109287 -36.211967
12.255756 -13.049784 21.378077
38.000496 -12.574871 37.10614
38.000496 -12.574871 37.10614
0 0 0 1 0 0 0 1 0 0 0 1 0 0 0 0 0 17 1 0 0
