ply
format ascii 1.0
comment PCL generated
element vertex 17
property float x
property float y
property float z
element camera 1
property float view_px
property float view_py
property float view_pz
property float x_axisx
property float x_axisy
property float x_axisz
property float y_axisx
property float y_axisy
property float y_axisz
property float z_axisx
property float z_axisy
property float z_axisz
property float focal
property float scalex
property float scaley
property float centerx
property float centery
property int viewportx
property int viewporty
property float k1
property float k2
end_header
-3.2855 -1.79535 -76.580795
-31.118366 -9.1612005 -30.687166
-31.118366 -9.1612005 -30.687166
-32.220695 -19.094652 -56.578327
22.369938 -44.655502 -44.783409
21.10574 44.941227 -43.165966
-40.150448 -44.666977 -19.474783
-6.0995317 44.566395 -19.079054
-22.393139 -44.748459 19.199528
-6.4892673 -14.590539 19.290829
-23.579153 -31.861794 32.014359
-24.742817 -44.828907 44.631218
-38.533257 -40.008606 -88.019241
-16.625269 -12.904778 -87.615112
-16.625269 -12.904778 -87.615112
-14.860859 62.792179 -16.015108
-12.657446 -38.524792 87.629669
0 0 0 1 0 0 0 1 0 0 0 1 0 0 0 0 0 17 1 0 0
