ply
format ascii 1.0
comment PCL generated
element vertex 17
property float x
property float y
property float z
element camera 1
property float view_px
property float view_py
property float view_pz
property float x_axisx
property float x_axisy
property float x_axisz
property float y_axisx
property float y_axisy
property float y_axisz
property float z_axisx
property float z_axisy
property float z_axisz
property float focal
property float scalex
property float scaley
property float centerx
property float centery
property int viewportx
property int viewporty
property float k1
property float k2
end_header
-18.352413 -16.291475 -46.118366
-54.404339 -3.242871 -49.782776
-54.337582 22.719463 -49.96949
-17.646439 -28.612354 -22.571133
-17.375866 -28.986446 3.042798
-41.351048 67.775536 16.225405
-42.407093 65.10273 21.088533
-1.4385124 16.220631 28.736145
-48.082531 -28.679758 36.350391
-48.082531 -28.679758 36.350391
7.2909498 -0.28275001 41.252499
-9.8204346 15.859227 49.429874
44.896355 19.224512 23.897264
-30.237228 -44.964916 30.875063
-38.449009 12.727179 -49.965656
-38.542866 12.53776 48.485161
-9.0284357 12.606961 42.36816
0 0 0 1 0 0 0 1 0 0 0 1 0 0 0 0 0 17 1 0 0
