ply
format ascii 1.0
comment PCL generated
element vertex 17
property float x
property float y
property float z
element camera 1
property float view_px
property float view_py
property float view_pz
property float x_axisx
property float x_axisy
property float x_axisz
property float y_axisx
property float y_axisy
property float y_axisz
property float z_axisx
property float z_axisy
property float z_axisz
property float focal
property float scalex
property float scaley
property float centerx
property float centery
property int viewportx
property int viewporty
property float k1
property float k2
end_header
19.0737 -7.1055002 -5.1170001
-16.802782 8.8693075 -3.2450626
18.395416 7.2271419 -3.3988419
-28.140537 -2.5140798 9.7001429
28.787994 2.9715872 9.2858038
-28.067165 2.6949439 13.906555
6.8545003 -32.414967 -31.400904
44.736389 -33.396954 -31.867075
44.736389 -33.396954 -31.867075
-44.728077 -19.226503 -33.38887
-44.728077 -19.226503 -33.38887
44.071918 18.307907 -32.405598
-44.838203 32.025242 -33.073868
-45.221558 40.131912 -30.736988
19.339432 6.4308643 33.302185
-56.778255 -13.941214 -31.363533
-9.6548309 16.291769 -30.368254
0 0 0 1 0 0 0 1 0 0 0 1 0 0 0 0 0 17 1 0 0
