ply
format ascii 1.0
comment PCL generated
element vertex 17
property float x
property float y
property float z
element camera 1
property float view_px
property float view_py
property float view_pz
property float x_axisx
property float x_axisy
property float x_axisz
property float y_axisx
property float y_axisy
property float y_axisz
property float z_axisx
property float z_axisy
property float z_axisz
property float focal
property float scalex
property float scaley
property float centerx
property float centery
property int viewportx
property int viewporty
property float k1
property float k2
end_header
42.108597 1.2989 8.6593494
-44.8941 -0.5442 -39.070301
16.909367 -29.6777 -20.862463
42.47625 -16.770645 -21.619516
45.926746 7.6720505 -18.500967
-14.527234 32.659634 -17.871801
-8.5140839 33.950089 -17.430092
-47.447273 3.306607 -3.7601235
-45.1726 -0.403 0.3105
30.756029 2.9353209 1.8142415
30.756029 2.9353209 1.8142415
-14.136229 3.4488032 9.8640099
6.3335104 -6.4272547 -41.934052
-6.4672771 6.5661988 -41.850174
6.3579979 6.3807726 -42.043907
12.830205 12.770076 -42.065662
-9.5339994 -7.2333479 35.220745
0 0 0 1 0 0 0 1 0 0 0 1 0 0 0 0 0 17 1 0 0
