ply
format ascii 1.0
comment PCL generated
element vertex 17
property float x
property float y
property float z
element camera 1
property float view_px
property float view_py
property float view_pz
property float x_axisx
property float x_axisy
property float x_axisz
property float y_axisx
property float y_axisy
property float y_axisz
property float z_axisx
property float z_axisy
property float z_axisz
property float focal
property float scalex
property float scaley
property float centerx
property float centery
property int viewportx
property int viewporty
property float k1
property float k2
end_header
-16.393259 -9.7332344 -60.900551
15.956796 -9.7303877 -60.700603
-16.570442 9.6245661 -60.927132
-15.779648 3.454473 -54.446774
-2.9264402 -28.234426 16.726542
-3.2564251 -17.78787 30.0989
-15.230386 -6.4364042 -44.898811
15.095978 29.865408 -21.305954
15.095978 29.865408 -21.305954
-15.969951 -6.7239418 -6.3505168
15.868002 -6.504951 -6.3421736
6.3973379 28.997364 -6.3826227
-2.266268 -2.6550541 82.445854
-11.448503 -12.654584 -83.787979
-11.563811 12.909077 -83.892113
-2.266268 -2.6550541 82.445854
3.3506649 -3.2287946 82.283417
0 0 0 1 0 0 0 1 0 0 0 1 0 0 0 0 0 17 1 0 0
