ply
format ascii 1.0
comment PCL generated
element vertex 17
property float x
property float y
property float z
element camera 1
property float view_px
property float view_py
property float view_pz
property float x_axisx
property float x_axisy
property float x_axisz
property float y_axisx
property float y_axisy
property float y_axisz
property float z_axisx
property float z_axisy
property float z_axisz
property float focal
property float scalex
property float scaley
property float centerx
property float centery
property int viewportx
property int viewporty
property float k1
property float k2
end_header
22.24095 5.5859251 -57.834949
16.101946 9.5929699 -58.214165
-12.7781 13.9349 -57.626202
-16.024673 -48.116646 -56.3825
-15.636525 7.0915623 -57.368851
22.73056 -47.906219 -28.454573
-23.669455 -41.510822 -28.814798
-21.302715 -41.416924 -22.872843
26.800392 -54.730213 -55.056259
-29.353951 -34.637455 -54.514591
-29.353951 -34.637455 -54.514591
7.1168098 45.638943 -7.3669972
-2.6315994 -56.38105 18.941814
13.684565 10.200959 56.157589
-26.468145 27.636614 -53.607239
10.946733 13.331072 55.056713
10.946733 13.331072 55.056713
0 0 0 1 0 0 0 1 0 0 0 1 0 0 0 0 0 17 1 0 0
