ply
format ascii 1.0
comment PCL generated
element vertex 17
property float x
property float y
property float z
element camera 1
property float view_px
property float view_py
property float view_pz
property float x_axisx
property float x_axisy
property float x_axisz
property float y_axisx
property float y_axisy
property float y_axisz
property float z_axisx
property float z_axisy
property float z_axisz
property float focal
property float scalex
property float scaley
property float centerx
property float centery
property int viewportx
property int viewporty
property float k1
property float k2
end_header
-79.85392 35.282082 -102.10088
-73.310036 34.90564 -102.24454
-80.196594 -22.228588 -84.28672
6.3746529 6.3561015 -103.35857
19.160456 6.3133779 -104.09071
-6.6905155 32.996403 -57.716114
24.704847 6.1349421 -44.309219
-6.2106214 32.292332 -44.796032
-45.757153 7.3124361 42.890846
10.117658 -12.879527 10.371597
80.894234 -12.783567 13.0889
64.210396 -13.043434 98.344688
63.936409 13.089863 98.041924
-76.568146 -24.57102 -103.80615
-76.471062 53.144623 -91.161407
-67.022751 17.66465 73.070175
-57.729248 9.9109478 103.97595
0 0 0 1 0 0 0 1 0 0 0 1 0 0 0 0 0 17 1 0 0
