ply
format ascii 1.0
comment PCL generated
element vertex 17
property float x
property float y
property float z
element camera 1
property float view_px
property float view_py
property float view_pz
property float x_axisx
property float x_axisy
property float x_axisz
property float y_axisx
property float y_axisy
property float y_axisz
property float z_axisx
property float z_axisy
property float z_axisz
property float focal
property float scalex
property float scaley
property float centerx
property float centery
property int viewportx
property int viewporty
property float k1
property float k2
end_header
58.412384 -2.8645165 53.319534
-41.761364 -3.2009459 62.488117
-83.269073 -32.677734 -58.056118
100.95406 -7.6654377 -14.424103
-95.2901 -39.739723 4.1388001
-12.9566 -25.6099 3.0265999
-30.902239 6.6553493 4.6424131
55.645985 -4.2133803 53.787395
56.994183 2.3496959 52.724243
-109.64935 2.7583072 68.419029
-38.356888 -12.843107 -68.136459
-12.796692 -12.72784 -68.65715
-38.395172 12.775847 -68.458519
-13.321737 -10.29628 58.589485
-109.11473 3.3526106 63.305515
11.953056 52.783302 -61.588089
24.544024 6.23211 53.910767
0 0 0 1 0 0 0 1 0 0 0 1 0 0 0 0 0 17 1 0 0
