ply
format ascii 1.0
comment PCL generated
element vertex 18
property float x
property float y
property float z
element camera 1
property float view_px
property float view_py
property float view_pz
property float x_axisx
property float x_axisy
property float x_axisz
property float y_axisx
property float y_axisy
property float y_axisz
property float z_axisx
property float z_axisy
property float z_axisz
property float focal
property float scalex
property float scaley
property float centerx
property float centery
property int viewportx
property int viewporty
property float k1
property float k2
end_header
46.0938 -2.118 12.6148
46.657951 -1.1212 12.8828
46.0938 -2.118 42.743599
-52.718697 -2.118 46.457748
-52.718697 4.8569999 46.12265
-49.231201 14.447625 46.423412
42.025051 -6.820056 15.769862
48.186302 -3.5129998 42.12431
28.78397 -3.18555 45.622261
1.0076499 38.607925 45.451626
-0.89749306 6.0343652 -44.761093
-20.120548 -33.595543 43.259968
-36.506538 -24.629467 43.626137
20.19273 -6.01057 43.153126
-10.310991 -17.387691 -39.546928
-51.556198 -25.709101 38.457802
55.505867 -5.4234014 35.644794
55.505867 -5.4234014 35.644794
0 0 0 1 0 0 0 1 0 0 0 1 0 0 0 0 0 18 1 0 0
