ply
format ascii 1.0
comment PCL generated
element vertex 17
property float x
property float y
property float z
element camera 1
property float view_px
property float view_py
property float view_pz
property float x_axisx
property float x_axisy
property float x_axisz
property float y_axisx
property float y_axisy
property float y_axisz
property float z_axisx
property float z_axisy
property float z_axisz
property float focal
property float scalex
property float scaley
property float centerx
property float centery
property int viewportx
property int viewporty
property float k1
property float k2
end_header
-28.465134 22.961117 -80.085075
-22.765339 20.018587 -74.064377
-19.193628 -6.2931466 -103.4254
-31.925945 6.2901964 -103.41902
10.792082 -6.1434541 -77.398727
5.2335401 6.1038957 -75.068954
-54.175949 -6.0212607 -57.66972
13.7863 2.971725 -0.34920001
-95.860588 -6.0624614 15.702765
-108.48891 6.2972784 19.439413
62.643974 -7.3731995 52.026398
25.8843 -4.8796 25.1182
-36.400166 -10.765992 87.462906
12.880464 -12.614133 97.566429
29.536165 20.899477 -102.62524
29.536165 20.899477 -102.62524
106.76981 -10.616736 81.692566
0 0 0 1 0 0 0 1 0 0 0 1 0 0 0 0 0 17 1 0 0
