ply
format ascii 1.0
comment PCL generated
element vertex 17
property float x
property float y
property float z
element camera 1
property float view_px
property float view_py
property float view_pz
property float x_axisx
property float x_axisy
property float x_axisz
property float y_axisx
property float y_axisy
property float y_axisz
property float z_axisx
property float z_axisy
property float z_axisz
property float focal
property float scalex
property float scaley
property float centerx
property float centery
property int viewportx
property int viewporty
property float k1
property float k2
end_header
27.233059 1.2615601 -30.218699
17.097593 -9.5686502 -27.566641
17.097593 -9.5686502 -27.566641
30.614002 -22.063263 -16.030392
9.5804052 -15.950712 -9.7230177
10.154696 -9.835722 -9.1653252
11.088463 -2.9012458 -9.6358833
0.47284999 38.5023 -9.7341499
21.154022 -33.038242 -4.152422
-3.4137249 24.206169 5.0636749
-3.3066466 28.121469 2.6902282
-3.6510587 20.8999 9.238698
-19.048237 -7.7700844 -44.861603
-5.8290696 -31.289009 -6.1732101
0.47284999 38.5023 -9.7341499
-14.628947 -15.436468 -42.338951
-9.9403467 -7.1604795 35.342163
0 0 0 1 0 0 0 1 0 0 0 1 0 0 0 0 0 17 1 0 0
